<?xml version="1.0" standalone="no"?>
<!DOCTYPE svg PUBLIC "-//W3C//DTD SVG 20010904//EN"
 "http://www.w3.org/TR/2001/REC-SVG-20010904/DTD/svg10.dtd">
<svg version="1.0" xmlns="http://www.w3.org/2000/svg"
 width="1024.000000pt" height="1024.000000pt" viewBox="0 0 1024.000000 1024.000000"
 preserveAspectRatio="xMidYMid meet">

<g transform="translate(0.000000,1024.000000) scale(0.100000,-0.100000)"
fill="#000000" stroke="none">
<path d="M6428 8539 c-120 -17 -236 -102 -293 -215 -28 -55 -30 -66 -30 -174
0 -105 2 -120 28 -174 15 -33 24 -63 20 -66 -5 -4 -78 -54 -163 -111 -177
-118 -419 -288 -665 -468 -93 -68 -199 -137 -233 -154 -59 -27 -69 -29 -135
-23 -39 4 -182 27 -317 51 -416 75 -456 80 -750 79 -253 0 -271 -1 -393 -27
-237 -52 -434 -134 -617 -257 -122 -82 -199 -147 -353 -299 -218 -214 -785
-864 -821 -941 -15 -33 -21 -65 -21 -120 0 -65 4 -82 30 -129 107 -194 400
-247 678 -124 148 66 273 149 742 498 105 78 208 153 230 168 l40 27 275 -51
c151 -27 286 -54 300 -58 24 -9 24 -9 -8 -10 -59 -2 -175 -32 -239 -63 -119
-58 -232 -171 -380 -378 -224 -315 -413 -745 -439 -996 l-7 -66 -171 -172
c-170 -170 -246 -231 -328 -263 -55 -21 -213 -21 -358 0 -313 46 -399 30 -520
-93 -79 -80 -166 -218 -280 -445 -150 -297 -230 -559 -201 -661 23 -86 92
-121 211 -110 160 14 337 106 545 282 l50 42 159 -59 c406 -152 686 -209 1019
-209 270 1 458 41 658 143 97 49 228 134 229 148 0 4 -21 14 -47 24 -318 119
-588 367 -727 667 -61 131 -65 153 -16 83 227 -321 530 -538 953 -684 107 -37
258 -77 507 -136 174 -41 311 -89 455 -160 272 -133 470 -308 829 -734 l129
-154 -111 7 c-171 12 -2022 9 -2492 -3 -922 -24 -1577 -62 -1735 -102 -60 -15
-74 -33 -43 -53 225 -147 4433 -185 5728 -51 462 48 393 111 -160 145 -102 6
-186 13 -188 15 -2 2 32 22 76 44 100 50 236 133 370 224 236 160 288 245 228
372 -71 152 -283 235 -526 206 -52 -7 -126 -23 -165 -37 -96 -35 -107 -35
-116 -1 -4 15 -39 89 -77 165 -249 495 -584 876 -1135 1289 -78 58 -144 108
-146 110 -2 1 -2 5 1 8 6 7 207 -83 308 -138 41 -22 132 -76 202 -119 149 -93
128 -95 285 30 411 329 729 818 923 1417 55 171 75 204 163 266 184 129 344
176 687 199 85 6 194 17 241 25 216 37 401 136 522 278 169 197 300 565 242
677 -22 42 -73 74 -340 208 -382 192 -404 210 -520 422 -31 58 -72 125 -90
150 -49 66 -182 192 -248 234 -216 138 -515 233 -840 267 l-117 12 -31 54
c-40 69 -130 167 -183 198 -87 51 -184 69 -288 54z m1453 -1142 c19 -12 42
-40 53 -61 16 -32 17 -44 7 -76 -32 -107 -177 -132 -238 -41 -77 114 64 254
178 178z m589 -313 c97 -55 184 -104 195 -111 15 -9 21 -27 26 -91 9 -99 36
-164 94 -217 l45 -41 -15 -43 c-42 -120 -154 -256 -253 -309 -108 -58 -199
-77 -362 -77 -130 0 -150 3 -198 24 -57 26 -106 75 -130 130 -26 64 -27 194
-2 296 43 173 141 363 238 461 62 63 106 86 152 80 20 -2 112 -47 210 -102z"/>
<path d="M7239 5203 c-129 -343 -332 -659 -607 -945 l-84 -87 98 -30 c127 -40
338 -86 494 -108 182 -25 621 -25 780 0 230 37 460 108 575 178 184 111 288
279 289 464 0 147 -56 258 -163 322 -79 48 -137 56 -330 48 -285 -12 -605 42
-952 160 -40 14 -76 25 -81 25 -5 0 -13 -12 -19 -27z"/>
</g>
</svg>
