<svg xmlns="http://www.w3.org/2000/svg" width="1556" height="1782" viewBox="0 0 1556 1782" fill="none">
  <defs>
    <linearGradient id="g" x1="0%" y1="50%" x2="100%" y2="50%">
      <stop offset="0%" stop-color="#08111C"/>
      <stop offset="45%" stop-color="#142841"/>
      <stop offset="100%" stop-color="#0A1728"/>
    </linearGradient>
  </defs>
  <g fill="url(#g)" fill-rule="evenodd">
    <path d="M 634.0 1372.0 L 632.0 1375.0 L 630.0 1388.0 L 630.0 1576.0 L 632.0 1598.0 L 634.0 1602.0 L 636.0 1616.0 L 638.0 1618.0 L 638.0 1622.0 L 642.0 1628.0 L 642.0 1631.0 L 656.0 1653.0 L 672.0 1671.0 L 687.0 1683.0 L 712.0 1695.0 L 728.0 1699.0 L 754.0 1701.0 L 959.0 1700.0 L 965.0 1699.0 L 975.0 1690.0 L 977.0 1679.0 L 971.0 1668.0 L 965.0 1664.0 L 756.0 1664.0 L 729.0 1660.0 L 710.0 1652.0 L 702.0 1646.0 L 683.0 1625.0 L 677.0 1614.0 L 671.0 1596.0 L 671.0 1586.0 L 669.0 1580.0 L 669.0 1432.0 L 1028.0 1431.0 L 1037.0 1424.0 L 1039.0 1418.0 L 1039.0 1379.0 L 1037.0 1373.0 L 1029.0 1366.0 L 642.0 1366.0 Z"/>
    <path d="M 237.0 964.0 L 231.0 968.0 L 228.0 968.0 L 190.0 986.0 L 169.0 998.0 L 149.0 1012.0 L 147.0 1012.0 L 121.0 1032.0 L 86.0 1066.0 L 56.0 1105.0 L 56.0 1107.0 L 52.0 1111.0 L 52.0 1113.0 L 38.0 1135.0 L 32.0 1147.0 L 30.0 1155.0 L 26.0 1161.0 L 22.0 1175.0 L 20.0 1177.0 L 20.0 1181.0 L 18.0 1183.0 L 18.0 1187.0 L 16.0 1189.0 L 16.0 1193.0 L 12.0 1203.0 L 12.0 1208.0 L 10.0 1210.0 L 8.0 1225.0 L 6.0 1228.0 L 6.0 1236.0 L 4.0 1239.0 L 4.0 1249.0 L 2.0 1254.0 L 2.0 1268.0 L 0.0 1272.0 L 0.0 1774.0 L 506.0 1775.0 L 507.0 1768.0 L 509.0 1765.0 L 509.0 1756.0 L 511.0 1753.0 L 511.0 1742.0 L 513.0 1739.0 L 515.0 1716.0 L 517.0 1712.0 L 517.0 1701.0 L 519.0 1697.0 L 519.0 1686.0 L 521.0 1682.0 L 521.0 1669.0 L 523.0 1665.0 L 523.0 1654.0 L 525.0 1649.0 L 525.0 1636.0 L 527.0 1632.0 L 527.0 1616.0 L 529.0 1612.0 L 529.0 1591.0 L 531.0 1585.0 L 531.0 1563.0 L 533.0 1554.0 L 533.0 1442.0 L 531.0 1434.0 L 531.0 1410.0 L 529.0 1405.0 L 529.0 1392.0 L 527.0 1388.0 L 527.0 1376.0 L 525.0 1372.0 L 523.0 1348.0 L 521.0 1345.0 L 521.0 1337.0 L 519.0 1334.0 L 519.0 1325.0 L 517.0 1322.0 L 515.0 1306.0 L 513.0 1303.0 L 513.0 1298.0 L 511.0 1295.0 L 511.0 1290.0 L 509.0 1288.0 L 509.0 1282.0 L 507.0 1280.0 L 507.0 1275.0 L 505.0 1273.0 L 505.0 1268.0 L 503.0 1266.0 L 501.0 1255.0 L 499.0 1253.0 L 495.0 1237.0 L 493.0 1235.0 L 491.0 1226.0 L 489.0 1224.0 L 481.0 1201.0 L 455.0 1148.0 L 433.0 1113.0 L 393.0 1063.0 L 352.0 1024.0 L 308.0 992.0 L 260.0 968.0 L 256.0 968.0 L 254.0 966.0 L 244.0 963.0 Z"/>
    <path d="M 484.0 50.0 L 451.0 72.0 L 412.0 105.0 L 378.0 143.0 L 366.0 159.0 L 344.0 194.0 L 328.0 227.0 L 310.0 279.0 L 308.0 293.0 L 306.0 295.0 L 306.0 301.0 L 302.0 313.0 L 300.0 333.0 L 298.0 337.0 L 293.0 397.0 L 292.0 400.0 L 276.0 417.0 L 268.0 433.0 L 267.0 492.0 L 268.0 513.0 L 270.0 517.0 L 280.0 529.0 L 292.0 535.0 L 312.0 535.0 L 344.0 529.0 L 346.0 532.0 L 348.0 548.0 L 350.0 550.0 L 350.0 555.0 L 352.0 557.0 L 354.0 565.0 L 362.0 580.0 L 372.0 592.0 L 372.0 598.0 L 370.0 600.0 L 370.0 604.0 L 368.0 606.0 L 368.0 609.0 L 366.0 611.0 L 366.0 614.0 L 356.0 636.0 L 354.0 645.0 L 348.0 657.0 L 344.0 671.0 L 340.0 678.0 L 340.0 682.0 L 334.0 694.0 L 334.0 698.0 L 330.0 706.0 L 328.0 715.0 L 326.0 717.0 L 324.0 726.0 L 322.0 728.0 L 320.0 737.0 L 318.0 739.0 L 318.0 743.0 L 316.0 745.0 L 314.0 754.0 L 310.0 761.0 L 308.0 771.0 L 304.0 778.0 L 300.0 794.0 L 298.0 796.0 L 294.0 811.0 L 292.0 813.0 L 292.0 817.0 L 290.0 819.0 L 290.0 823.0 L 286.0 831.0 L 286.0 835.0 L 282.0 843.0 L 282.0 847.0 L 280.0 849.0 L 280.0 853.0 L 278.0 855.0 L 270.0 883.0 L 268.0 885.0 L 268.0 889.0 L 260.0 911.0 L 260.0 917.0 L 271.0 921.0 L 275.0 921.0 L 277.0 923.0 L 281.0 923.0 L 283.0 925.0 L 287.0 925.0 L 289.0 927.0 L 293.0 927.0 L 295.0 929.0 L 299.0 929.0 L 301.0 931.0 L 319.0 937.0 L 325.0 941.0 L 328.0 941.0 L 330.0 943.0 L 333.0 943.0 L 339.0 947.0 L 346.0 949.0 L 391.0 973.0 L 392.0 975.0 L 415.0 989.0 L 449.0 1015.0 L 482.0 1046.0 L 516.0 1086.0 L 554.0 1142.0 L 580.0 1190.0 L 580.0 1193.0 L 596.0 1226.0 L 596.0 1229.0 L 606.0 1251.0 L 608.0 1260.0 L 612.0 1267.0 L 614.0 1276.0 L 616.0 1278.0 L 1091.0 1279.0 L 1093.0 1275.0 L 1089.0 1264.0 L 1089.0 1258.0 L 1087.0 1255.0 L 1087.0 1249.0 L 1085.0 1247.0 L 1085.0 1241.0 L 1083.0 1239.0 L 1081.0 1223.0 L 1079.0 1221.0 L 1079.0 1215.0 L 1077.0 1212.0 L 1075.0 1198.0 L 1071.0 1187.0 L 1071.0 1181.0 L 1069.0 1178.0 L 1069.0 1173.0 L 1067.0 1171.0 L 1067.0 1165.0 L 1065.0 1162.0 L 1065.0 1157.0 L 1063.0 1154.0 L 1063.0 1149.0 L 1059.0 1138.0 L 1059.0 1132.0 L 1057.0 1130.0 L 1057.0 1124.0 L 1055.0 1121.0 L 1055.0 1116.0 L 1051.0 1105.0 L 1051.0 1099.0 L 1049.0 1096.0 L 1049.0 1092.0 L 1047.0 1090.0 L 1047.0 1084.0 L 1045.0 1082.0 L 1043.0 1068.0 L 1041.0 1066.0 L 1041.0 1059.0 L 1039.0 1054.0 L 1041.0 1053.0 L 1045.0 1055.0 L 1063.0 1069.0 L 1082.0 1087.0 L 1112.0 1127.0 L 1140.0 1180.0 L 1140.0 1183.0 L 1148.0 1200.0 L 1150.0 1209.0 L 1154.0 1216.0 L 1154.0 1220.0 L 1160.0 1236.0 L 1160.0 1242.0 L 1162.0 1244.0 L 1162.0 1249.0 L 1164.0 1252.0 L 1161.0 1256.0 L 1135.0 1268.0 L 1131.0 1272.0 L 1126.0 1274.0 L 1113.0 1284.0 L 1094.0 1303.0 L 1080.0 1324.0 L 1076.0 1336.0 L 1074.0 1338.0 L 1074.0 1344.0 L 1072.0 1347.0 L 1072.0 1379.0 L 1074.0 1382.0 L 1076.0 1393.0 L 1084.0 1408.0 L 1102.0 1428.0 L 1102.0 1431.0 L 1096.0 1443.0 L 1094.0 1457.0 L 1092.0 1460.0 L 1092.0 1490.0 L 1096.0 1506.0 L 1098.0 1508.0 L 1098.0 1512.0 L 1106.0 1528.0 L 1116.0 1541.0 L 1128.0 1553.0 L 1152.0 1570.0 L 1152.0 1774.0 L 1313.0 1775.0 L 1313.0 1772.0 L 1296.0 1758.0 L 1273.0 1733.0 L 1255.0 1709.0 L 1237.0 1673.0 L 1237.0 1669.0 L 1235.0 1667.0 L 1235.0 1663.0 L 1233.0 1661.0 L 1233.0 1657.0 L 1231.0 1654.0 L 1231.0 1649.0 L 1229.0 1647.0 L 1229.0 1641.0 L 1227.0 1637.0 L 1228.0 1632.0 L 1248.0 1670.0 L 1262.0 1691.0 L 1264.0 1692.0 L 1264.0 1694.0 L 1278.0 1711.0 L 1307.0 1739.0 L 1323.0 1751.0 L 1352.0 1767.0 L 1376.0 1775.0 L 1381.0 1775.0 L 1383.0 1777.0 L 1423.0 1781.0 L 1457.0 1777.0 L 1460.0 1775.0 L 1464.0 1775.0 L 1466.0 1773.0 L 1470.0 1773.0 L 1492.0 1763.0 L 1504.0 1755.0 L 1523.0 1737.0 L 1533.0 1724.0 L 1541.0 1709.0 L 1541.0 1706.0 L 1547.0 1694.0 L 1547.0 1690.0 L 1549.0 1688.0 L 1551.0 1673.0 L 1553.0 1670.0 L 1553.0 1659.0 L 1555.0 1654.0 L 1555.0 1615.0 L 1553.0 1609.0 L 1553.0 1596.0 L 1551.0 1592.0 L 1549.0 1574.0 L 1547.0 1571.0 L 1547.0 1565.0 L 1545.0 1562.0 L 1545.0 1556.0 L 1543.0 1553.0 L 1543.0 1548.0 L 1541.0 1546.0 L 1541.0 1541.0 L 1537.0 1533.0 L 1537.0 1528.0 L 1535.0 1526.0 L 1531.0 1511.0 L 1529.0 1509.0 L 1529.0 1506.0 L 1527.0 1504.0 L 1521.0 1487.0 L 1517.0 1481.0 L 1517.0 1478.0 L 1491.0 1429.0 L 1457.0 1379.0 L 1425.0 1341.0 L 1371.0 1288.0 L 1323.0 1249.0 L 1305.0 1221.0 L 1273.0 1179.0 L 1239.0 1140.0 L 1209.0 1110.0 L 1170.0 1076.0 L 1118.0 1038.0 L 1116.0 1038.0 L 1102.0 1028.0 L 1100.0 1028.0 L 1057.0 1002.0 L 1037.0 992.0 L 1025.0 988.0 L 1021.0 984.0 L 1019.0 972.0 L 1017.0 969.0 L 1017.0 963.0 L 1015.0 959.0 L 1013.0 932.0 L 1015.0 928.0 L 1015.0 922.0 L 1024.0 909.0 L 1040.0 901.0 L 1049.0 899.0 L 1051.0 897.0 L 1055.0 897.0 L 1057.0 895.0 L 1061.0 895.0 L 1068.0 891.0 L 1094.0 883.0 L 1096.0 881.0 L 1110.0 877.0 L 1117.0 873.0 L 1121.0 873.0 L 1123.0 871.0 L 1126.0 871.0 L 1128.0 869.0 L 1131.0 869.0 L 1143.0 863.0 L 1156.0 859.0 L 1171.0 851.0 L 1174.0 851.0 L 1184.0 845.0 L 1187.0 845.0 L 1192.0 841.0 L 1195.0 841.0 L 1196.0 839.0 L 1202.0 837.0 L 1224.0 823.0 L 1226.0 823.0 L 1248.0 807.0 L 1262.0 795.0 L 1281.0 774.0 L 1295.0 754.0 L 1309.0 728.0 L 1309.0 725.0 L 1311.0 723.0 L 1311.0 720.0 L 1317.0 707.0 L 1317.0 703.0 L 1319.0 701.0 L 1319.0 697.0 L 1321.0 695.0 L 1323.0 683.0 L 1325.0 681.0 L 1325.0 675.0 L 1327.0 672.0 L 1327.0 666.0 L 1329.0 664.0 L 1331.0 649.0 L 1333.0 645.0 L 1333.0 637.0 L 1335.0 635.0 L 1337.0 613.0 L 1339.0 610.0 L 1339.0 579.0 L 1333.0 563.0 L 1318.0 548.0 L 1310.0 544.0 L 1306.0 544.0 L 1304.0 542.0 L 1299.0 542.0 L 1296.0 540.0 L 1283.0 538.0 L 1273.0 534.0 L 1268.0 534.0 L 1244.0 526.0 L 1224.0 522.0 L 1222.0 520.0 L 1209.0 518.0 L 1200.0 514.0 L 1186.0 512.0 L 1184.0 510.0 L 1179.0 510.0 L 1176.0 508.0 L 1172.0 508.0 L 1170.0 506.0 L 1165.0 506.0 L 1163.0 504.0 L 1157.0 504.0 L 1155.0 502.0 L 1150.0 502.0 L 1133.0 496.0 L 1128.0 496.0 L 1126.0 494.0 L 1121.0 494.0 L 1118.0 492.0 L 1107.0 490.0 L 1105.0 488.0 L 1099.0 488.0 L 1097.0 486.0 L 1092.0 486.0 L 1089.0 484.0 L 1079.0 482.0 L 1073.0 477.0 L 1053.0 445.0 L 1041.0 431.0 L 1020.0 412.0 L 1027.0 409.0 L 1046.0 407.0 L 1048.0 405.0 L 1056.0 405.0 L 1058.0 403.0 L 1065.0 403.0 L 1068.0 401.0 L 1085.0 399.0 L 1088.0 397.0 L 1095.0 397.0 L 1107.0 393.0 L 1114.0 393.0 L 1116.0 391.0 L 1133.0 389.0 L 1135.0 387.0 L 1141.0 387.0 L 1143.0 385.0 L 1156.0 383.0 L 1171.0 375.0 L 1175.0 370.0 L 1179.0 361.0 L 1179.0 343.0 L 1177.0 341.0 L 1175.0 334.0 L 1166.0 324.0 L 1142.0 316.0 L 1140.0 314.0 L 1136.0 314.0 L 1134.0 312.0 L 1130.0 312.0 L 1128.0 310.0 L 1124.0 310.0 L 1122.0 308.0 L 1113.0 306.0 L 1111.0 304.0 L 1107.0 304.0 L 1105.0 302.0 L 1101.0 302.0 L 1094.0 298.0 L 1073.0 292.0 L 1071.0 290.0 L 1067.0 290.0 L 1065.0 288.0 L 1050.0 284.0 L 1042.0 280.0 L 1033.0 263.0 L 1029.0 251.0 L 1003.0 201.0 L 997.0 193.0 L 991.0 181.0 L 971.0 153.0 L 971.0 151.0 L 939.0 113.0 L 915.0 90.0 L 888.0 68.0 L 886.0 68.0 L 882.0 64.0 L 857.0 48.0 L 813.0 26.0 L 804.0 24.0 L 802.0 22.0 L 788.0 18.0 L 786.0 16.0 L 782.0 16.0 L 780.0 14.0 L 774.0 14.0 L 772.0 12.0 L 767.0 12.0 L 764.0 10.0 L 748.0 8.0 L 746.0 6.0 L 737.0 6.0 L 734.0 4.0 L 725.0 4.0 L 721.0 2.0 L 707.0 2.0 L 698.0 0.0 L 651.0 0.0 L 643.0 2.0 L 627.0 2.0 L 623.0 4.0 L 612.0 4.0 L 609.0 6.0 L 591.0 8.0 L 589.0 10.0 L 583.0 10.0 L 580.0 12.0 L 575.0 12.0 L 573.0 14.0 L 568.0 14.0 L 566.0 16.0 L 561.0 16.0 L 559.0 18.0 L 555.0 18.0 L 548.0 22.0 L 538.0 24.0 L 536.0 26.0 L 519.0 32.0 Z M 1258.0 1406.0 L 1237.0 1414.0 L 1217.0 1424.0 L 1199.0 1436.0 L 1172.0 1461.0 L 1162.0 1475.0 L 1156.0 1487.0 L 1154.0 1495.0 L 1152.0 1496.0 L 1149.0 1493.0 L 1149.0 1489.0 L 1147.0 1486.0 L 1147.0 1472.0 L 1149.0 1470.0 L 1151.0 1461.0 L 1159.0 1448.0 L 1178.0 1429.0 L 1194.0 1419.0 L 1197.0 1419.0 L 1209.0 1413.0 L 1213.0 1413.0 L 1215.0 1411.0 L 1220.0 1411.0 L 1222.0 1409.0 L 1227.0 1409.0 L 1230.0 1407.0 L 1242.0 1407.0 L 1251.0 1405.0 Z M 1281.0 1293.0 L 1275.0 1296.0 L 1267.0 1296.0 L 1263.0 1298.0 L 1247.0 1300.0 L 1245.0 1302.0 L 1240.0 1302.0 L 1238.0 1304.0 L 1227.0 1306.0 L 1225.0 1308.0 L 1222.0 1308.0 L 1220.0 1310.0 L 1203.0 1316.0 L 1177.0 1332.0 L 1154.0 1352.0 L 1144.0 1364.0 L 1128.0 1388.0 L 1127.0 1387.0 L 1127.0 1372.0 L 1129.0 1369.0 L 1129.0 1363.0 L 1137.0 1343.0 L 1143.0 1336.0 L 1143.0 1334.0 L 1157.0 1319.0 L 1179.0 1303.0 L 1196.0 1297.0 L 1198.0 1295.0 L 1210.0 1293.0 L 1213.0 1291.0 L 1220.0 1291.0 L 1224.0 1289.0 L 1264.0 1289.0 L 1267.0 1291.0 L 1277.0 1291.0 Z M 1212.0 562.0 L 1212.0 570.0 L 1210.0 573.0 L 1210.0 602.0 L 1218.0 625.0 L 1228.0 639.0 L 1239.0 649.0 L 1252.0 657.0 L 1266.0 661.0 L 1268.0 663.0 L 1262.0 689.0 L 1260.0 691.0 L 1256.0 704.0 L 1242.0 727.0 L 1215.0 756.0 L 1197.0 770.0 L 1195.0 770.0 L 1181.0 780.0 L 1152.0 794.0 L 1122.0 804.0 L 1120.0 806.0 L 1116.0 806.0 L 1101.0 812.0 L 1097.0 812.0 L 1095.0 814.0 L 1090.0 814.0 L 1088.0 816.0 L 1083.0 816.0 L 1080.0 818.0 L 1076.0 818.0 L 1074.0 820.0 L 1069.0 820.0 L 1066.0 822.0 L 1061.0 822.0 L 1059.0 824.0 L 1053.0 824.0 L 1050.0 826.0 L 1044.0 826.0 L 1041.0 828.0 L 1019.0 828.0 L 1006.0 822.0 L 999.0 815.0 L 993.0 806.0 L 987.0 794.0 L 985.0 785.0 L 983.0 783.0 L 983.0 778.0 L 981.0 776.0 L 981.0 770.0 L 979.0 767.0 L 979.0 761.0 L 977.0 757.0 L 977.0 744.0 L 975.0 739.0 L 975.0 705.0 L 977.0 700.0 L 977.0 684.0 L 979.0 680.0 L 981.0 661.0 L 983.0 658.0 L 983.0 652.0 L 985.0 649.0 L 985.0 645.0 L 987.0 642.0 L 987.0 638.0 L 989.0 635.0 L 989.0 631.0 L 991.0 629.0 L 993.0 619.0 L 995.0 617.0 L 999.0 604.0 L 1003.0 598.0 L 1009.0 583.0 L 1013.0 578.0 L 1015.0 572.0 L 1031.0 550.0 L 1031.0 548.0 L 1056.0 521.0 L 1062.0 519.0 L 1065.0 521.0 L 1071.0 521.0 L 1073.0 523.0 L 1078.0 523.0 L 1080.0 525.0 L 1085.0 525.0 L 1087.0 527.0 L 1092.0 527.0 L 1095.0 529.0 L 1106.0 531.0 L 1108.0 533.0 L 1113.0 533.0 L 1115.0 535.0 L 1120.0 535.0 L 1123.0 537.0 L 1128.0 537.0 L 1130.0 539.0 L 1135.0 539.0 L 1137.0 541.0 L 1157.0 545.0 L 1159.0 547.0 L 1163.0 547.0 L 1166.0 549.0 L 1171.0 549.0 L 1173.0 551.0 L 1177.0 551.0 L 1180.0 553.0 L 1184.0 553.0 Z M 916.0 483.0 L 924.0 481.0 L 933.0 481.0 L 936.0 483.0 L 940.0 483.0 L 947.0 487.0 L 954.0 494.0 L 960.0 505.0 L 962.0 517.0 L 958.0 529.0 L 949.0 540.0 L 937.0 546.0 L 926.0 547.0 L 913.0 544.0 L 902.0 536.0 L 895.0 526.0 L 895.0 522.0 L 893.0 519.0 L 893.0 510.0 L 895.0 507.0 L 895.0 503.0 L 906.0 489.0 Z M 1070.0 342.0 L 1069.0 346.0 L 1058.0 348.0 L 1055.0 350.0 L 1045.0 350.0 L 1042.0 352.0 L 1033.0 352.0 L 1029.0 354.0 L 1020.0 354.0 L 1017.0 356.0 L 1008.0 356.0 L 1004.0 358.0 L 995.0 358.0 L 991.0 360.0 L 968.0 362.0 L 965.0 364.0 L 956.0 364.0 L 952.0 366.0 L 942.0 366.0 L 939.0 368.0 L 929.0 368.0 L 925.0 370.0 L 916.0 370.0 L 912.0 372.0 L 902.0 372.0 L 899.0 374.0 L 888.0 374.0 L 885.0 376.0 L 874.0 376.0 L 870.0 378.0 L 847.0 380.0 L 843.0 382.0 L 818.0 384.0 L 815.0 386.0 L 792.0 388.0 L 789.0 390.0 L 780.0 390.0 L 777.0 392.0 L 767.0 392.0 L 763.0 394.0 L 754.0 394.0 L 750.0 396.0 L 741.0 396.0 L 737.0 398.0 L 728.0 398.0 L 724.0 400.0 L 715.0 400.0 L 711.0 402.0 L 689.0 404.0 L 686.0 406.0 L 676.0 406.0 L 673.0 408.0 L 664.0 408.0 L 660.0 410.0 L 652.0 410.0 L 637.0 414.0 L 629.0 414.0 L 626.0 416.0 L 617.0 416.0 L 614.0 418.0 L 605.0 418.0 L 601.0 420.0 L 593.0 420.0 L 591.0 422.0 L 582.0 422.0 L 579.0 424.0 L 560.0 426.0 L 557.0 428.0 L 540.0 430.0 L 536.0 432.0 L 530.0 432.0 L 516.0 424.0 L 513.0 424.0 L 496.0 416.0 L 482.0 414.0 L 480.0 412.0 L 470.0 412.0 L 461.0 410.0 L 434.0 412.0 L 431.0 414.0 L 417.0 416.0 L 404.0 422.0 L 401.0 422.0 L 381.0 434.0 L 364.0 450.0 L 354.0 463.0 L 352.0 468.0 L 347.0 472.0 L 341.0 472.0 L 339.0 474.0 L 333.0 474.0 L 330.0 476.0 L 323.0 476.0 L 319.0 478.0 L 311.0 477.0 L 311.0 448.0 L 315.0 434.0 L 320.0 429.0 L 338.0 423.0 L 340.0 421.0 L 345.0 421.0 L 353.0 417.0 L 357.0 417.0 L 360.0 415.0 L 364.0 415.0 L 366.0 413.0 L 370.0 413.0 L 393.0 405.0 L 404.0 403.0 L 406.0 401.0 L 411.0 401.0 L 413.0 399.0 L 418.0 399.0 L 420.0 397.0 L 425.0 397.0 L 427.0 395.0 L 432.0 395.0 L 435.0 393.0 L 440.0 393.0 L 442.0 391.0 L 447.0 391.0 L 450.0 389.0 L 455.0 389.0 L 465.0 385.0 L 479.0 383.0 L 481.0 381.0 L 487.0 381.0 L 498.0 377.0 L 504.0 377.0 L 515.0 373.0 L 530.0 371.0 L 541.0 367.0 L 548.0 367.0 L 551.0 365.0 L 557.0 365.0 L 569.0 361.0 L 586.0 359.0 L 589.0 357.0 L 595.0 357.0 L 598.0 355.0 L 604.0 355.0 L 616.0 351.0 L 633.0 349.0 L 635.0 347.0 L 642.0 347.0 L 645.0 345.0 L 654.0 345.0 L 657.0 343.0 L 664.0 343.0 L 667.0 341.0 L 686.0 339.0 L 698.0 335.0 L 706.0 335.0 L 710.0 333.0 L 717.0 333.0 L 720.0 331.0 L 729.0 331.0 L 732.0 329.0 L 741.0 329.0 L 744.0 327.0 L 752.0 327.0 L 755.0 325.0 L 762.0 325.0 L 777.0 321.0 L 786.0 321.0 L 798.0 317.0 L 807.0 308.0 L 807.0 305.0 L 809.0 303.0 L 809.0 291.0 L 805.0 283.0 L 798.0 276.0 L 795.0 276.0 L 793.0 274.0 L 778.0 274.0 L 773.0 276.0 L 763.0 276.0 L 760.0 278.0 L 750.0 278.0 L 747.0 280.0 L 724.0 282.0 L 721.0 284.0 L 712.0 284.0 L 708.0 286.0 L 699.0 286.0 L 695.0 288.0 L 686.0 288.0 L 682.0 290.0 L 673.0 290.0 L 670.0 292.0 L 650.0 294.0 L 647.0 296.0 L 638.0 296.0 L 635.0 298.0 L 627.0 298.0 L 624.0 300.0 L 616.0 300.0 L 613.0 302.0 L 592.0 304.0 L 589.0 306.0 L 581.0 306.0 L 578.0 308.0 L 571.0 308.0 L 567.0 310.0 L 561.0 310.0 L 558.0 312.0 L 549.0 312.0 L 547.0 314.0 L 540.0 314.0 L 528.0 318.0 L 511.0 320.0 L 508.0 322.0 L 502.0 322.0 L 499.0 324.0 L 475.0 328.0 L 473.0 330.0 L 459.0 332.0 L 457.0 334.0 L 451.0 334.0 L 449.0 336.0 L 443.0 336.0 L 440.0 338.0 L 435.0 338.0 L 424.0 342.0 L 418.0 342.0 L 416.0 344.0 L 396.0 348.0 L 394.0 350.0 L 388.0 350.0 L 386.0 352.0 L 381.0 352.0 L 378.0 354.0 L 360.0 358.0 L 358.0 360.0 L 353.0 359.0 L 355.0 340.0 L 357.0 337.0 L 357.0 329.0 L 359.0 327.0 L 359.0 320.0 L 361.0 317.0 L 361.0 311.0 L 363.0 308.0 L 365.0 295.0 L 367.0 293.0 L 367.0 287.0 L 369.0 285.0 L 369.0 281.0 L 373.0 274.0 L 373.0 269.0 L 375.0 267.0 L 383.0 244.0 L 407.0 200.0 L 427.0 172.0 L 439.0 158.0 L 476.0 123.0 L 525.0 91.0 L 528.0 91.0 L 556.0 77.0 L 580.0 69.0 L 584.0 69.0 L 586.0 67.0 L 592.0 67.0 L 594.0 65.0 L 600.0 65.0 L 612.0 61.0 L 638.0 59.0 L 642.0 57.0 L 690.0 57.0 L 695.0 59.0 L 720.0 61.0 L 723.0 63.0 L 731.0 63.0 L 734.0 65.0 L 739.0 65.0 L 742.0 67.0 L 753.0 69.0 L 761.0 73.0 L 765.0 73.0 L 807.0 93.0 L 831.0 109.0 L 853.0 127.0 L 880.0 154.0 L 900.0 178.0 L 900.0 180.0 L 914.0 198.0 L 914.0 200.0 L 918.0 204.0 L 918.0 206.0 L 930.0 224.0 L 932.0 230.0 L 936.0 235.0 L 940.0 245.0 L 952.0 266.0 L 966.0 299.0 L 972.0 306.0 L 994.0 313.0 L 996.0 315.0 L 1000.0 315.0 L 1007.0 319.0 L 1011.0 319.0 L 1013.0 321.0 L 1034.0 327.0 L 1041.0 331.0 L 1057.0 335.0 Z"/>
  </g>
</svg>
